<svg width="1920" height="679" viewBox="0 0 1920 679" fill="none" xmlns="http://www.w3.org/2000/svg">
<mask id="mask0" mask-type="alpha" maskUnits="userSpaceOnUse" x="0" y="0" width="1920" height="679">
<rect width="1920" height="679" fill="#C4C4C4"/>
</mask>
<g mask="url(#mask0)">
<path fill-rule="evenodd" clip-rule="evenodd" d="M1497.92 -714.679C1639.09 -746.618 1812.73 -723.851 1909.99 -616.623C2006.24 -510.497 1946.83 -343.009 1964.03 -200.749C1977 -93.5489 2024.36 8.62128 1998.29 113.406C1971 223.109 1898.79 312.101 1817.01 390.13C1723.81 479.064 1626.64 595.42 1497.92 590.871C1369.49 586.331 1297.82 444.991 1194.8 368.137C1093.61 292.644 941.219 264.486 900.272 145.027C859.277 25.4243 939.083 -99.4601 995.795 -212.456C1044.78 -310.062 1124.96 -379.253 1202.17 -456.474C1297.02 -551.346 1367.1 -685.079 1497.92 -714.679Z" fill="url(#paint0_linear)"/>
<path fill-rule="evenodd" clip-rule="evenodd" d="M190.494 662.581C137.016 693.549 71.7042 670.957 9.94273 673.055C-39.7082 674.742 -89.6302 692.861 -135.447 673.656C-182.317 654.01 -215.113 612.31 -240.291 568.165C-265.817 523.41 -276.639 473.851 -278.766 422.373C-281.291 361.286 -295.355 289.913 -253.638 245.217C-211.917 200.514 -138.967 217.756 -78.6152 207.922C-20.3964 198.435 41.838 159.29 92.9455 188.743C144.099 218.222 128.231 298.844 162.537 346.894C204.832 406.133 306.885 424.878 313.306 497.383C319.51 567.446 251.362 627.333 190.494 662.581Z" fill="url(#paint1_linear)"/>
</g>
<defs>
<linearGradient id="paint0_linear" x1="1816" y1="-288" x2="1190" y2="402" gradientUnits="userSpaceOnUse">
<stop stop-color="#7A76FF"/>
<stop offset="0.494792" stop-color="#A976FF"/>
<stop offset="1" stop-color="#E476FF"/>
</linearGradient>
<linearGradient id="paint1_linear" x1="-54.6041" y1="641.84" x2="-86.2938" y2="204.333" gradientUnits="userSpaceOnUse">
<stop stop-color="#7A76FF"/>
<stop offset="0.494792" stop-color="#A976FF"/>
<stop offset="1" stop-color="#E476FF"/>
</linearGradient>
</defs>
</svg>
