<svg width="18" height="22" viewBox="0 0 18 22" fill="none" xmlns="http://www.w3.org/2000/svg">
<path fill-rule="evenodd" clip-rule="evenodd" d="M9.03612 0.844727H8.96479C5.59565 0.844727 2.50654 3.40491 2.20685 6.79438C2.18686 7.03685 2.17324 7.28461 2.16444 7.55152L2.15213 8.17554L2.14969 8.73501L2.16473 8.67124C2.02569 9.3813 1.70525 10.0399 1.23653 10.5781L1.16936 10.6686C0.768036 11.3071 0.537443 12.0461 0.50175 12.8092L0.500904 13.0588C0.480415 14.0624 0.808819 15.0556 1.42663 15.8445C2.26444 16.7709 3.34896 17.3235 4.51296 17.4408C7.49 17.7794 10.502 17.7794 13.4873 17.4399C14.6434 17.3285 15.7311 16.7742 16.5338 15.882C17.1399 15.1226 17.4707 14.2113 17.499 13.2678L17.5 12.8454C17.4668 12.0487 17.2348 11.309 16.8286 10.6733L16.7669 10.5903L16.6162 10.4047C16.2776 9.96171 16.0303 9.45144 15.8896 8.90565L15.845 8.70968L15.8358 8.50416C15.833 8.41173 15.8317 8.30923 15.8312 8.18121L15.8311 7.47628C15.8288 7.20661 15.8212 7.01486 15.8034 6.79899C15.4934 3.40312 12.4034 0.844727 9.03612 0.844727ZM8.96479 2.30607H9.03612C11.7336 2.30607 14.1944 4.34348 14.4307 6.93294C14.4447 7.10293 14.4509 7.26512 14.4528 7.50605L14.4555 8.45348C14.4585 8.605 14.4642 8.731 14.4739 8.87279L14.4868 8.96984L14.5517 9.25867C14.744 10.0227 15.0893 10.7355 15.5647 11.35L15.7026 11.5194L15.6873 11.4928C15.951 11.9055 16.1013 12.3844 16.1223 12.8783L16.1216 13.0495C16.1375 13.7366 15.9199 14.3895 15.5084 14.9064C14.9645 15.5089 14.1871 15.9051 13.3514 15.9857C10.4527 16.3153 7.53928 16.3153 4.65168 15.9869C3.80682 15.9017 3.02881 15.5053 2.45369 14.8712C2.08086 14.3922 1.86568 13.7414 1.87919 13.0744L1.87935 12.8454L1.89682 12.6459C1.9389 12.3121 2.04539 11.9738 2.21045 11.6623L2.29415 11.5173C2.90779 10.7944 3.32892 9.9155 3.51441 8.96826L3.52879 8.81975L3.53532 7.85699L3.55137 7.36854C3.55866 7.21446 3.56798 7.06805 3.57967 6.92614C3.80803 4.3436 6.26651 2.30607 8.96479 2.30607ZM2.29415 11.5173C2.27931 11.5347 2.26436 11.5521 2.24929 11.5694L2.29856 11.5096L2.29415 11.5173ZM11.608 19.3721C11.3114 19.1191 10.8775 19.1689 10.6389 19.4834C10.5355 19.6196 10.4158 19.7419 10.2826 19.8472C9.83075 20.2183 9.26691 20.3835 8.7064 20.3136C8.14669 20.2438 7.63792 19.9454 7.29271 19.4861C7.05551 19.1704 6.62189 19.1184 6.32417 19.3699C6.02646 19.6213 5.9774 20.081 6.21459 20.3967C6.787 21.1584 7.62578 21.6502 8.5453 21.7649C9.46401 21.8795 10.3891 21.6084 11.1167 21.0105C11.3327 20.8399 11.5366 20.6318 11.7129 20.3994C11.9515 20.085 11.9045 19.625 11.608 19.3721Z" fill="white"/>
</svg>
