<svg width="25" height="16" viewBox="0 0 25 16" fill="none" xmlns="http://www.w3.org/2000/svg">
<path d="M24.4302 1.085C24.602 0.46 24.4302 0 23.6041 0H20.8706C20.1744 0 19.8542 0.395 19.6825 0.835C19.6825 0.835 18.2902 4.49 16.3224 6.86C15.6866 7.545 15.3942 7.765 15.0461 7.765C14.8744 7.765 14.6099 7.545 14.6099 6.92V1.085C14.6099 0.335 14.415 0 13.8395 0H9.5419C9.10565 0 8.84575 0.35 8.84575 0.675C8.84575 1.385 9.82964 1.55 9.93174 3.55V7.89C9.93174 8.84 9.77395 9.015 9.42587 9.015C8.49767 9.015 6.24215 5.345 4.90554 1.145C4.63636 0.33 4.37182 0 3.67103 0H0.937482C0.157794 0 1.7704e-08 0.395 1.7704e-08 0.835C1.7704e-08 1.615 0.9282 5.49 4.32077 10.61C6.58094 14.105 9.76467 16 12.6607 16C14.401 16 14.6145 15.58 14.6145 14.855C14.6145 11.515 14.4567 11.2 15.3292 11.2C15.733 11.2 16.4291 11.42 18.0535 13.105C19.9099 15.105 20.2162 16 21.2558 16H23.9893C24.769 16 25.1635 15.58 24.9361 14.75C24.4163 13.005 20.9031 9.415 20.7453 9.175C20.3415 8.615 20.4575 8.365 20.7453 7.865C20.7499 7.86 24.0868 2.8 24.4302 1.085Z" fill="white"/>
</svg>
