<svg width="28" height="28" viewBox="0 0 28 28" fill="none" xmlns="http://www.w3.org/2000/svg">
<path fill-rule="evenodd" clip-rule="evenodd" d="M19.1551 3.037C19.1016 2.63971 18.7636 2.3335 18.3547 2.3335C17.9087 2.3335 17.5471 2.69792 17.5471 3.14745V4.04735H10.4628V3.14745L10.4554 3.037C10.402 2.63971 10.064 2.3335 9.65513 2.3335C9.20905 2.3335 8.84744 2.69792 8.84744 3.14745V4.06756C5.53763 4.29552 3.5 6.44008 3.5 9.90025V19.7216C3.5 23.4353 5.78473 25.6668 9.44563 25.6668H18.5543C22.2195 25.6668 24.4999 23.4726 24.4999 19.8037V9.90025C24.5105 6.43885 22.4794 4.29489 19.1624 4.06747V3.14745L19.1551 3.037ZM17.5471 5.67526V6.71884L17.5544 6.82929C17.6079 7.22658 17.9458 7.53279 18.3547 7.53279C18.8008 7.53279 19.1624 7.16837 19.1624 6.71884V5.69932C21.5757 5.90011 22.8923 7.35336 22.8846 9.89775V10.3691H5.1154V9.90025C5.1154 7.35748 6.43913 5.90115 8.84744 5.69948V6.71884L8.85481 6.82929C8.90829 7.22658 9.24622 7.53279 9.65513 7.53279C10.1012 7.53279 10.4628 7.16837 10.4628 6.71884V5.67526H17.5471ZM5.1154 11.997V19.7216C5.1154 22.5246 6.66579 24.0389 9.44565 24.0389H18.5543C21.3437 24.0389 22.8846 22.5563 22.8846 19.8037L22.8846 11.997H5.1154ZM19.6014 15.4215C19.6014 14.972 19.2398 14.6076 18.7937 14.6076L18.6741 14.615C18.2799 14.6689 17.976 15.0095 17.976 15.4215C17.976 15.8711 18.3377 16.2355 18.7937 16.2355L18.9033 16.2281C19.2975 16.1742 19.6014 15.8336 19.6014 15.4215ZM14.0149 14.6076C14.461 14.6076 14.8226 14.972 14.8226 15.4215C14.8226 15.8336 14.5188 16.1742 14.1245 16.2281L14.0149 16.2355C13.5589 16.2355 13.1973 15.8711 13.1973 15.4215C13.1973 15.0095 13.5011 14.6689 13.8953 14.615L14.0149 14.6076ZM10.0338 15.4215C10.0338 14.972 9.67218 14.6076 9.22611 14.6076L9.10653 14.615C8.7123 14.6689 8.40844 15.0095 8.40844 15.4215C8.40844 15.8711 8.77005 16.2355 9.21613 16.2355L9.3357 16.2281C9.72994 16.1742 10.0338 15.8336 10.0338 15.4215ZM18.7937 18.8255C19.2398 18.8255 19.6014 19.1899 19.6014 19.6395C19.6014 20.0515 19.2975 20.3921 18.9033 20.446L18.7937 20.4534C18.3377 20.4534 17.976 20.089 17.976 19.6395C17.976 19.2274 18.2799 18.8868 18.6741 18.8329L18.7937 18.8255ZM14.8226 19.6395C14.8226 19.1899 14.461 18.8255 14.0149 18.8255L13.8953 18.8329C13.5011 18.8868 13.1973 19.2274 13.1973 19.6395C13.1973 20.089 13.5589 20.4534 14.0149 20.4534L14.1245 20.446C14.5188 20.3921 14.8226 20.0515 14.8226 19.6395ZM9.22611 18.8255C9.67218 18.8255 10.0338 19.1899 10.0338 19.6395C10.0338 20.0515 9.72994 20.3921 9.3357 20.446L9.21613 20.4534C8.77005 20.4534 8.40844 20.089 8.40844 19.6395C8.40844 19.2274 8.7123 18.8868 9.10653 18.8329L9.22611 18.8255Z" fill="white"/>
</svg>
