<svg width="426" height="444" viewBox="0 0 426 444" fill="none" xmlns="http://www.w3.org/2000/svg">
<path d="M58.2604 127.54C58.2604 127.54 202.67 -9.90467 268.76 41.5144C334.85 92.9336 280.61 148.063 309.33 149.118C338.05 150.174 395.77 94.0743 421.15 154.417C446.53 214.759 342.57 287.501 361.11 290.593C379.65 293.685 410.86 282.778 410.86 305.455C410.86 328.131 322.37 418.016 262.59 411.822C202.81 405.627 289.12 344.219 254.14 349.805C219.16 355.392 159.4 441.737 112 389.241C64.6004 336.745 153.76 239.899 114.22 253.545C49.1404 275.998 -27.5396 216.273 58.2604 127.54Z" fill="#D6ECE1"/>
<path d="M241.49 130.056C251.08 123.723 246.53 108.222 237.25 102.742C227.97 97.262 232.54 95.1404 232.97 82.6561C233.68 61.5575 221.69 60.7366 221.69 60.7366C221.69 60.7366 210.41 60.0436 210.41 82.6561C210.41 95.1511 215.41 97.262 206.13 102.742C196.85 108.222 192.31 123.723 201.89 130.056C213.44 137.689 189.011 141.506 193.16 162.935C195.98 177.477 210.84 177.2 221.69 177.477C232.54 177.2 247.4 177.477 250.22 162.935C254.38 141.506 229.94 137.689 241.49 130.056Z" fill="#70CACD"/>
<path d="M221.371 172.989C221.621 172.051 222.741 105.546 221.371 93.1788C220.871 88.7117 219.251 180.899 221.371 172.989Z" fill="#008EA7"/>
<path d="M208.881 109.128C208.881 109.128 219.471 126.154 221.171 125.749C222.871 125.354 234.201 109.64 233.041 108.776C232.651 108.488 220.991 123.958 220.991 123.958C220.991 123.958 208.151 106.047 208.881 109.128Z" fill="#008EA7"/>
<path d="M208.881 124.949C208.881 124.949 219.471 141.975 221.171 141.57C222.871 141.176 234.201 125.461 233.041 124.597C232.651 124.31 220.991 139.779 220.991 139.779C220.991 139.779 208.151 121.868 208.881 124.949Z" fill="#008EA7"/>
<path d="M208.881 144.95C208.881 144.95 219.471 161.976 221.171 161.57C222.871 161.176 234.201 145.461 233.041 144.598C232.651 144.31 220.991 159.779 220.991 159.779C220.991 159.779 208.151 141.879 208.881 144.95Z" fill="#008EA7"/>
<path d="M296.72 188.01V162.53H149.58V188.01C120.54 188.01 96.9102 213.203 96.9102 244.163C96.9102 275.123 120.54 300.316 149.58 300.316C152.15 300.316 154.68 300.113 157.16 299.729C167.59 321.862 187.53 338.003 211.27 342.065V405.148H190.72C180.09 405.148 171.47 414.338 171.47 425.67H211.26V426.15H234.79V425.67H274.58C274.58 414.338 265.96 405.148 255.33 405.148H234.78V342.065C258.53 338.003 278.48 321.841 288.9 299.697C291.45 300.103 294.06 300.316 296.71 300.316C325.75 300.316 349.38 275.123 349.38 244.163C349.39 213.203 325.76 188.01 296.72 188.01ZM149.58 283.258C129.36 283.258 112.91 265.72 112.91 244.163C112.91 222.606 129.36 205.068 149.58 205.068V258.311C149.43 260.357 149.33 262.415 149.33 264.494C149.33 270.944 150.07 277.202 151.45 283.194C150.83 283.236 150.2 283.258 149.58 283.258ZM296.72 283.258C296.01 283.258 295.31 283.226 294.61 283.183C295.98 277.192 296.72 270.944 296.72 264.494V205.068C316.94 205.068 333.39 222.606 333.39 244.163C333.39 265.72 316.94 283.258 296.72 283.258Z" fill="#FFD67E"/>
<path d="M172.85 212.499C172.85 194.354 177.29 177.306 185.06 162.53H149.57V188.01C120.53 188.01 96.9004 213.203 96.9004 244.163C96.9004 275.123 120.53 300.316 149.57 300.316C152.14 300.316 154.67 300.113 157.15 299.729C167.58 321.862 187.52 338.003 211.26 342.065V405.148H190.71C180.08 405.148 171.46 414.338 171.46 425.67H211.25V426.15H234.78V425.67H274.57C274.57 414.338 265.95 405.148 255.32 405.148H234.77V342.065C252.98 338.952 268.94 328.717 280.1 314.143C276.4 314.602 272.65 314.847 268.83 314.847C215.84 314.847 172.85 269.025 172.85 212.499ZM149.58 283.258C129.36 283.258 112.91 265.72 112.91 244.163C112.91 222.606 129.36 205.068 149.58 205.068V258.311C149.43 260.357 149.33 262.415 149.33 264.494C149.33 270.944 150.07 277.202 151.45 283.194C150.83 283.236 150.2 283.258 149.58 283.258Z" fill="#FAA505"/>
<path d="M139.61 181.155L110.7 222.83C105.06 230.964 110.5 242.479 119.99 242.479H177.81C187.3 242.479 192.75 230.964 187.1 222.83L158.19 181.155C153.58 174.492 144.23 174.492 139.61 181.155Z" fill="#FFFAEF"/>
<path d="M156.93 121.836H140.88V199.61H156.93V121.836Z" fill="#FFFAEF"/>
<path d="M156.17 119.757H141.65C138.96 119.757 136.76 122.103 136.76 124.971C136.76 127.838 138.96 130.184 141.65 130.184H156.17C158.86 130.184 161.06 127.838 161.06 124.971C161.05 122.103 158.86 119.757 156.17 119.757Z" fill="#FFFAEF"/>
<path d="M177.45 222.148L165.41 204.791H132.41L120.37 222.148C116.15 228.224 120.22 236.828 127.31 236.828H170.5C177.59 236.828 181.66 228.224 177.45 222.148Z" fill="#7A76FF"/>
<path d="M48.8103 306.723C58.4003 300.39 53.8503 284.889 44.5703 279.409C35.2903 273.929 39.8603 271.808 40.2903 259.323C41.0003 238.225 29.0103 237.404 29.0103 237.404C29.0103 237.404 17.7303 236.711 17.7303 259.323C17.7303 271.818 22.7303 273.929 13.4503 279.409C4.17032 284.889 -0.369675 300.39 9.21032 306.723C20.7603 314.357 -3.66968 318.173 0.480322 339.602C3.30032 354.144 18.1603 353.867 29.0103 354.144C39.8603 353.867 54.7203 354.144 57.5403 339.602C61.6903 318.173 37.2603 314.357 48.8103 306.723Z" fill="#70CACD"/>
<path d="M28.6904 349.656C28.9404 348.718 30.0604 282.213 28.6904 269.846C28.1904 265.379 26.5704 357.566 28.6904 349.656Z" fill="#008EA7"/>
<path d="M16.2004 285.795C16.2004 285.795 26.7904 302.821 28.4904 302.416C30.1904 302.011 41.5204 286.307 40.3604 285.443C39.9704 285.156 28.3104 300.625 28.3104 300.625C28.3104 300.625 15.4704 282.714 16.2004 285.795Z" fill="#008EA7"/>
<path d="M16.2004 301.616C16.2004 301.616 26.7904 318.642 28.4904 318.237C30.1904 317.832 41.5204 302.128 40.3604 301.265C39.9704 300.977 28.3104 316.446 28.3104 316.446C28.3104 316.446 15.4704 298.546 16.2004 301.616Z" fill="#008EA7"/>
<path d="M16.2004 321.627C16.2004 321.627 26.7904 338.653 28.4904 338.248C30.1904 337.854 41.5204 322.139 40.3604 321.276C39.9704 320.977 28.3104 336.457 28.3104 336.457C28.3104 336.457 15.4704 318.546 16.2004 321.627Z" fill="#008EA7"/>
<path d="M191.36 243.054H41.7505V426.129H191.36V243.054Z" fill="#FFFAEF"/>
<path d="M191.36 240.698H41.7505V269.196H191.36V240.698Z" fill="#F05757"/>
<path d="M191.36 269.505H41.7505V281.659H191.36V269.505Z" fill="#D6ECE1"/>
<path d="M171.891 258.588C168.721 258.588 166.121 255.816 166.121 252.436V235.517C166.121 232.137 168.721 229.365 171.891 229.365C175.061 229.365 177.661 232.137 177.661 235.517V252.436C177.661 255.816 175.071 258.588 171.891 258.588Z" fill="#272443"/>
<path d="M61.2104 258.588C58.0404 258.588 55.4404 255.816 55.4404 252.436V235.517C55.4404 232.137 58.0404 229.365 61.2104 229.365C64.3805 229.365 66.9805 232.137 66.9805 235.517V252.436C66.9805 255.816 64.3905 258.588 61.2104 258.588Z" fill="#272443"/>
<path d="M57.9517 377.191V363.958L84.7607 336.122C90.1605 330.57 92.8604 325.855 92.8604 321.976C92.8604 319.466 92.0999 317.451 90.5788 315.93C89.0577 314.332 86.9662 313.534 84.3043 313.534C78.9806 313.534 75.0638 316.424 72.554 322.204L57.1531 313.192C59.5868 307.488 63.2374 303.153 68.1049 300.186C72.9723 297.22 78.2961 295.737 84.0762 295.737C91.5295 295.737 97.88 298.057 103.128 302.696C108.451 307.259 111.113 313.42 111.113 321.177C111.113 329.619 106.968 337.985 98.6785 346.275L85.4451 359.623H112.254V377.191H57.9517ZM147.112 325.398C154.946 325.398 161.448 327.756 166.62 332.471C171.868 337.111 174.491 343.651 174.491 352.093C174.491 360.459 171.677 367 166.049 371.715C160.421 376.43 153.539 378.788 145.401 378.788C138.784 378.788 132.966 377.381 127.946 374.567C122.927 371.677 119.238 367.38 116.881 361.676L132.624 352.55C134.601 358.178 138.86 360.992 145.401 360.992C148.975 360.992 151.675 360.155 153.501 358.482C155.326 356.809 156.239 354.679 156.239 352.093C156.239 349.507 155.364 347.378 153.615 345.705C151.865 344.031 149.318 343.195 145.971 343.195H120.988L124.296 297.334H170.499V314.447H141.408L140.609 325.398H147.112Z" fill="#272443"/>
<path d="M355.944 426.141L355.944 376.363L196.274 376.363L196.274 426.141L355.944 426.141Z" fill="#70CACD"/>
<path d="M346.933 397.188L346.933 376.367L344.703 376.367L344.703 397.188L346.933 397.188Z" fill="#008EA7"/>
<path d="M330.135 397.186L330.135 376.364L327.905 376.364L327.905 397.186L330.135 397.186Z" fill="#008EA7"/>
<path d="M352.535 386.578L352.535 376.364L350.305 376.364L350.305 386.578L352.535 386.578Z" fill="#008EA7"/>
<path d="M341.595 386.577L341.595 376.364L339.365 376.364L339.365 386.577L341.595 386.577Z" fill="#008EA7"/>
<path d="M335.928 386.575L335.928 376.361L333.698 376.361L333.698 386.575L335.928 386.575Z" fill="#008EA7"/>
<path d="M312.733 397.188L312.733 376.366L310.503 376.366L310.503 397.188L312.733 397.188Z" fill="#008EA7"/>
<path d="M324.193 386.58L324.193 376.366L321.963 376.366L321.963 386.58L324.193 386.58Z" fill="#008EA7"/>
<path d="M318.525 386.577L318.525 376.363L316.295 376.363L316.295 386.577L318.525 386.577Z" fill="#008EA7"/>
<path d="M295.009 397.182L295.009 376.361L292.779 376.361L292.779 397.182L295.009 397.182Z" fill="#008EA7"/>
<path d="M306.469 386.574L306.469 376.36L304.239 376.36L304.239 386.574L306.469 386.574Z" fill="#008EA7"/>
<path d="M300.801 386.581L300.801 376.368L298.571 376.368L298.571 386.581L300.801 386.581Z" fill="#008EA7"/>
<path d="M277.606 397.184L277.606 376.363L275.376 376.363L275.376 397.184L277.606 397.184Z" fill="#008EA7"/>
<path d="M289.066 386.576L289.066 376.362L286.836 376.362L286.836 386.576L289.066 386.576Z" fill="#008EA7"/>
<path d="M283.399 386.573L283.399 376.36L281.169 376.36L281.169 386.573L283.399 386.573Z" fill="#008EA7"/>
<path d="M259.225 397.186L259.225 376.365L256.995 376.365L256.995 397.186L259.225 397.186Z" fill="#008EA7"/>
<path d="M270.684 386.578L270.684 376.365L268.454 376.365L268.454 386.578L270.684 386.578Z" fill="#008EA7"/>
<path d="M265.017 386.576L265.017 376.362L262.787 376.362L262.787 386.576L265.017 386.576Z" fill="#008EA7"/>
<path d="M241.822 397.189L241.822 376.367L239.592 376.367L239.592 397.189L241.822 397.189Z" fill="#008EA7"/>
<path d="M253.282 386.58L253.282 376.367L251.052 376.367L251.052 386.58L253.282 386.58Z" fill="#008EA7"/>
<path d="M247.615 386.578L247.615 376.364L245.385 376.364L245.385 386.578L247.615 386.578Z" fill="#008EA7"/>
<path d="M223.93 397.181L223.93 376.36L221.7 376.36L221.7 397.181L223.93 397.181Z" fill="#008EA7"/>
<path d="M235.389 386.583L235.389 376.37L233.159 376.37L233.159 386.583L235.389 386.583Z" fill="#008EA7"/>
<path d="M229.722 386.58L229.722 376.367L227.492 376.367L227.492 386.58L229.722 386.58Z" fill="#008EA7"/>
<path d="M206.527 397.184L206.527 376.362L204.297 376.362L204.297 397.184L206.527 397.184Z" fill="#008EA7"/>
<path d="M217.987 386.575L217.987 376.362L215.757 376.362L215.757 386.575L217.987 386.575Z" fill="#008EA7"/>
<path d="M212.32 386.583L212.32 376.369L210.09 376.369L210.09 386.583L212.32 386.583Z" fill="#008EA7"/>
<path d="M407.71 296.296C417.3 289.964 412.75 274.462 403.47 268.982C394.19 263.503 398.76 261.381 399.19 248.897C399.9 227.798 387.91 226.977 387.91 226.977C387.91 226.977 376.63 226.284 376.63 248.897C376.63 261.392 381.63 263.503 372.35 268.982C363.07 274.462 358.53 289.964 368.11 296.296C379.66 303.93 355.23 307.747 359.38 329.176C362.2 343.718 377.06 343.44 387.91 343.718C398.76 343.44 413.62 343.718 416.44 329.176C420.6 307.747 396.16 303.93 407.71 296.296Z" fill="#70CACD"/>
<path d="M387.59 339.229C387.84 338.291 388.96 271.786 387.59 259.419C387.1 254.952 385.47 347.14 387.59 339.229Z" fill="#008EA7"/>
<path d="M375.1 275.368C375.1 275.368 385.69 292.394 387.39 291.989C389.09 291.595 400.42 275.88 399.26 275.017C398.87 274.729 387.21 290.198 387.21 290.198C387.21 290.198 374.38 272.298 375.1 275.368Z" fill="#008EA7"/>
<path d="M375.1 291.19C375.1 291.19 385.69 308.216 387.39 307.811C389.09 307.416 400.42 291.702 399.26 290.838C398.87 290.55 387.21 306.02 387.21 306.02C387.21 306.02 374.38 288.119 375.1 291.19Z" fill="#008EA7"/>
<path d="M375.1 311.201C375.1 311.201 385.69 328.227 387.39 327.822C389.09 327.427 400.42 311.713 399.26 310.849C398.87 310.561 387.21 326.031 387.21 326.031C387.21 326.031 374.38 308.13 375.1 311.201Z" fill="#008EA7"/>
<path d="M330.631 310.156H314.931C312.241 310.156 310.041 312.502 310.041 315.369C310.041 317.587 311.361 319.485 313.191 320.231V390.755C313.191 396.395 317.481 400.968 322.771 400.968C328.061 400.968 332.351 396.395 332.351 390.755V320.231C334.191 319.485 335.501 317.587 335.501 315.369C335.511 312.502 333.311 310.156 330.631 310.156Z" fill="#FFFAEF"/>
<path d="M322.78 397.493C318.87 397.493 315.67 394.081 315.67 389.913V356.01C315.67 351.841 318.87 348.43 322.78 348.43C326.69 348.43 329.891 351.841 329.891 356.01V389.913C329.891 394.081 326.69 397.493 322.78 397.493Z" fill="#F05757"/>
<path d="M329.881 329.879H315.661V355.562H329.881V329.879Z" fill="#F05757"/>
<path d="M359.49 310.156H343.79C341.1 310.156 338.9 312.502 338.9 315.369C338.9 317.587 340.22 319.485 342.05 320.231V390.755C342.05 396.395 346.34 400.968 351.63 400.968C356.92 400.968 361.21 396.395 361.21 390.755V320.231C363.05 319.485 364.36 317.587 364.36 315.369C364.38 312.502 362.18 310.156 359.49 310.156Z" fill="#FFFAEF"/>
<path d="M351.64 397.493C347.73 397.493 344.53 394.081 344.53 389.913V378.164C344.53 373.995 347.73 370.584 351.64 370.584C355.55 370.584 358.75 373.995 358.75 378.164V389.913C358.75 394.081 355.55 397.493 351.64 397.493Z" fill="#70CACD"/>
<path d="M358.75 361.863H344.53V387.546H358.75V361.863Z" fill="#70CACD"/>
<path d="M388.651 310.156H372.951C370.261 310.156 368.061 312.502 368.061 315.369C368.061 317.587 369.381 319.485 371.211 320.231V390.755C371.211 396.395 375.501 400.968 380.791 400.968C386.081 400.968 390.371 396.395 390.371 390.755V320.231C392.211 319.485 393.521 317.587 393.521 315.369C393.541 312.502 391.341 310.156 388.651 310.156Z" fill="#FFFAEF"/>
<path d="M380.8 397.493C376.89 397.493 373.69 394.081 373.69 389.913V378.164C373.69 373.995 376.89 370.584 380.8 370.584C384.71 370.584 387.91 373.995 387.91 378.164V389.913C387.92 394.081 384.72 397.493 380.8 397.493Z" fill="#FFD67E"/>
<path d="M387.91 333.845H373.69V387.546H387.91V333.845Z" fill="#FFD67E"/>
<path d="M304.48 315.561H285.98V425.372H304.48V315.561Z" fill="#7A76FF"/>
<path d="M419.101 315.561H400.601V425.372H419.101V315.561Z" fill="#7A76FF"/>
<path d="M415.8 359.656L415.8 339.932L294.55 339.932L294.55 359.656L415.8 359.656Z" fill="#7A76FF"/>
<path d="M418.681 414.594H401.021C398.111 414.594 395.761 419.764 395.761 426.14H423.941C423.941 419.764 421.581 414.594 418.681 414.594Z" fill="#7A76FF"/>
<path d="M304.061 414.594H286.401C283.491 414.594 281.141 419.764 281.141 426.14H309.321C309.321 419.764 306.971 414.594 304.061 414.594Z" fill="#7A76FF"/>
<path d="M150.06 384.913H18.1305C8.12049 384.913 0.000488281 376.256 0.000488281 365.584C0.000488281 354.912 8.12049 346.255 18.1305 346.255H150.06V384.913Z" fill="#7A76FF"/>
<path d="M150.01 352.801H13.2402V378.367H150.01V352.801Z" fill="#FFFAEF"/>
<path d="M150.01 353.036H13.2402V367.162H150.01V353.036Z" fill="#D6ECE1"/>
<path d="M202.75 352.748C202.75 352.748 202.29 350.669 200.78 351.607C199.27 352.545 200.66 355.221 202.21 355.861C203.75 356.49 202.75 352.748 202.75 352.748Z" fill="#E57373"/>
<path d="M213.38 352.428C213.38 352.428 213.84 350.349 215.35 351.287C216.871 352.225 215.47 354.901 213.92 355.541C212.39 356.17 213.38 352.428 213.38 352.428Z" fill="#E57373"/>
<path d="M213.83 346.628C214.04 347.428 213.41 359.539 208.66 360.797C203.91 362.044 201.92 352.598 202.25 347.129C202.58 341.671 212.05 339.965 213.83 346.628Z" fill="#E57373"/>
<path d="M222.96 430.649L227.86 432.131C227.73 433.005 225.81 442.206 225.25 442.217C224.69 442.217 224.9 434.807 224.9 434.807C224.9 434.807 222.78 434.487 222.51 434.306C222.27 434.146 222.96 430.649 222.96 430.649Z" fill="#272443"/>
<path d="M187.36 431.918L182.54 433.698C182.71 434.562 185.12 443.635 185.68 443.613C186.24 443.592 185.63 436.204 185.63 436.204C185.63 436.204 187.73 435.756 187.99 435.553C188.24 435.361 187.36 431.918 187.36 431.918Z" fill="#272443"/>
<path d="M202.97 413.346C202.97 413.346 228.35 401.299 240.5 411.384C256.32 424.53 187.36 436.438 187.36 436.438L185.51 432.099C185.51 432.099 232.3 412.92 224.96 415.958C217.62 418.997 194.42 424.199 202.97 413.346Z" fill="#027878"/>
<path d="M209.78 411.011C209.78 411.011 181.4 401.928 169.19 411.917C156.97 421.907 222.64 437.888 222.64 437.888L225.16 430.916C225.16 430.916 179.15 412.781 186.43 415.958C198.01 420.99 218.34 421.864 209.78 411.011Z" fill="#027878"/>
<path d="M198.01 376.693C198.01 376.693 176.59 388.985 180.46 398.324C184.33 407.664 193.97 412.994 195.19 414.945C196.41 416.896 197.04 419.924 197.04 419.924C197.04 419.924 196.08 418.858 192.78 417.771C189.48 416.683 173.58 407.61 173.58 395.915C173.58 384.22 191.36 369.091 194.57 367.236C197.79 365.36 198.01 376.693 198.01 376.693Z" fill="#E57373"/>
<path d="M219 376.298C219 376.298 237.61 391.032 233.75 400.361C229.88 409.7 222.08 412.984 220.86 414.935C219.64 416.886 219.01 419.913 219.01 419.913C219.01 419.913 219.97 418.847 223.27 417.76C226.57 416.672 241.14 407.952 241.14 396.256C241.14 384.561 224.7 369.081 221.48 367.226C218.25 365.36 219 376.298 219 376.298Z" fill="#E57373"/>
<path d="M190.99 415.553H222.19C222.19 415.553 224.07 368.132 221.63 366.703C213.62 362.044 194.61 364.571 193.65 366.703C192.68 368.835 190.99 415.553 190.99 415.553Z" fill="#7A76FF"/>
<path d="M190.931 400.936C190.931 400.936 189.771 423.869 190.931 424.327C192.091 424.786 220.941 424.754 222.001 424.327C223.061 423.901 222.761 400.936 222.761 400.936C222.761 400.936 199.601 399.646 190.931 400.936Z" fill="#D6ECE1"/>
<path d="M190.931 422.685C190.931 422.685 189.771 425.383 190.931 425.436C192.091 425.489 220.941 425.489 222.001 425.436C223.061 425.383 222.761 422.685 222.761 422.685C222.761 422.685 199.601 422.536 190.931 422.685Z" fill="#9BD5CA"/>
<path d="M210.88 355.104C210.88 355.104 212.37 364.113 211.81 365.093C211.25 366.074 209.75 368.132 208.36 368.132C206.97 368.132 205.41 365.093 205.31 364.603C205.21 364.113 205.31 353.696 205.31 353.696C205.31 353.696 209.3 351.639 210.88 355.104Z" fill="#E57373"/>
<path d="M203.44 343.76C203.44 343.76 204.38 339.368 206.93 339.805C209.48 340.242 213.31 339.496 214.53 340.924C215.75 342.353 216.29 345.477 213.64 346.063C210.99 346.639 204.81 343.334 204.04 345.967C202.03 352.801 204.8 356.095 204.8 356.095C206.39 356.532 210.91 356.17 211.93 355.541C213.86 354.347 211.92 344.901 212.83 345.008C213.75 345.114 214.46 345.573 214.36 347.95C214.26 350.328 213.74 361.213 211.81 362.044C210.5 362.609 205.71 362.385 204.94 361.65C203.47 360.232 200.61 349.464 201.43 346.863C202.25 344.251 202.26 343.867 203.44 343.76Z" fill="#272443"/>
<path d="M197.11 378.527C197.11 378.527 189.58 385.307 188.2 386.565C186.82 387.823 180.45 380.723 180.45 379.443C180.45 378.164 192.65 367.332 193.64 366.703C194.64 366.074 197.86 372.812 197.11 378.527Z" fill="#7A76FF"/>
<path d="M218.161 378.527C218.161 378.527 225.69 385.307 227.07 386.565C228.45 387.823 234.82 380.723 234.82 379.443C234.82 378.164 222.62 367.332 221.63 366.703C220.63 366.074 217.411 372.812 218.161 378.527Z" fill="#7A76FF"/>
<path d="M87.0601 152.999C87.0601 152.999 66.7401 163.436 50.3101 156.197C33.9801 149.001 32.0601 149.076 29.5601 150.238C27.0601 151.4 33.2701 143.937 45.8101 150.238C49.6501 152.167 69.9001 152.199 85.6201 140.621C85.6101 140.621 90.7401 149.811 87.0601 152.999Z" fill="#E57373"/>
<path d="M124.14 93.0188C124.14 93.0188 126.91 91.1211 128.9 91.5476C130.89 91.974 131.22 89.5753 131.22 89.5753C131.22 89.5753 131.65 92.1873 128.9 93.0188C126.14 93.8397 123.89 93.3387 124.14 99.3196C124.39 105.301 136.67 140.483 110.4 148.233C110.4 148.233 105.39 138.564 106.14 136.186C106.89 133.819 118.42 127.593 118.66 117.241C118.89 106.91 119.38 94.4901 124.14 93.0188Z" fill="#E57373"/>
<path d="M79.8604 179.609C79.8604 179.609 74.5404 193.746 60.4804 195.431C46.4204 197.115 35.5304 181.166 35.5304 181.166L30.3604 184.641C30.3604 184.641 37.2804 203.693 55.7704 207.958C74.2604 212.222 87.2404 197.339 87.2404 197.339C87.2404 197.339 91.1404 199.578 89.6404 216.604C87.7604 237.98 85.8904 250.304 85.8904 250.304H92.0704C92.0704 250.304 100.94 227.66 102.42 211.444C104.15 192.552 101.14 182.904 101.14 182.904L79.8604 179.609Z" fill="#272443"/>
<path d="M35.4003 182.616L32.2903 178.767C31.6503 179.226 25.0903 184.588 25.3003 185.1C25.5203 185.612 31.3203 182.499 31.3203 182.499C31.3203 182.499 32.4103 184.29 32.6603 184.46C32.8903 184.62 35.4003 182.616 35.4003 182.616Z" fill="#272443"/>
<path d="M87.29 249.376L87.69 254.441C88.46 254.472 96.73 254.227 96.83 253.684C96.93 253.14 90.52 252.02 90.52 252.02C90.52 252.02 90.62 249.888 90.51 249.59C90.42 249.323 87.29 249.376 87.29 249.376Z" fill="#272443"/>
<path d="M76.7603 185.164C76.7603 185.164 84.8702 162.893 85.0102 145.451C85.1202 132.657 109.38 135.173 110.21 140.866C112.07 153.553 103.3 195.249 103.3 195.249L76.7603 185.164Z" fill="#FFD67E"/>
<path d="M101.88 136.549C101.88 136.549 111.64 130.504 112.11 130.205C112.58 129.896 122.58 140.632 122.58 140.632C122.58 140.632 113.51 150.6 108.66 151.048C103.81 151.496 99.4604 136.922 101.88 136.549Z" fill="#FFD67E"/>
<path d="M70.4404 146.719C70.4404 146.719 71.2804 157.903 72.1104 158.489C72.9504 159.076 87.6404 155.504 88.8304 154.108C90.0204 152.711 91.6604 137.551 90.8804 137.945C90.1004 138.34 71.6404 146.08 70.4404 146.719Z" fill="#FFD67E"/>
<path d="M97.5004 124.864C97.5004 124.864 97.4004 121.815 96.0703 122.113C94.7403 122.401 93.7802 125.397 94.4903 126.495C95.2103 127.593 97.5204 127.401 97.5004 124.864Z" fill="#E57373"/>
<path d="M106.351 121.335C106.351 121.335 109.1 129.757 104.34 131.175C99.5805 132.593 100.45 127.22 100.64 128.233C100.83 129.246 102.041 137.604 102.041 137.604C102.041 137.604 99.6305 140.877 95.0905 138.041C94.3705 137.593 97.0305 124.544 97.5805 117.913C97.8105 115.034 104.631 117.923 106.351 121.335Z" fill="#E57373"/>
<path d="M98.0301 115.322C98.0301 115.322 99.1001 111.377 101.38 112.305C103.66 113.233 103.35 114.565 105 113.819C106.65 113.073 108.34 115.834 107.47 117.593C106.32 119.906 106.34 120.61 103.19 119.853C100.04 119.096 98.3901 117.923 97.6801 119.267C96.9701 120.61 98.2301 124.043 97.2901 124.469C96.3501 124.885 96.4201 122.209 95.7201 123.211C95.0101 124.214 93.9101 126.794 95.8001 126.463C97.6901 126.143 96.2901 128.83 95.5701 128.745C94.8501 128.659 91.5701 125.791 91.9401 121.953C92.1801 119.523 94.5701 120.781 93.9101 119.022C93.2501 117.252 94.7601 113.478 98.0301 115.322Z" fill="#272443"/>
<path d="M150.4 423.453H18.4703C8.46033 423.453 0.340332 414.796 0.340332 404.124C0.340332 393.452 8.46033 384.795 18.4703 384.795H150.4V423.453Z" fill="#FFD67E"/>
<path d="M150.061 384.913H17.9106C8.21058 384.913 0.350586 393.292 0.350586 403.634H150.061V384.913Z" fill="#FAA505"/>
<path d="M35.9302 384.805H21.7002V423.708H35.9302V384.805Z" fill="#7A76FF"/>
<path d="M141.11 384.805H126.88V423.708H141.11V384.805Z" fill="#7A76FF"/>
<path d="M114.34 391.693H46.3701V413.783H114.34V391.693Z" fill="#7A76FF"/>
<path d="M342.891 225.25L329.111 215.474C325.181 212.68 324.101 206.966 326.721 202.776L343.101 176.539C345.721 172.349 351.081 171.198 355.011 173.991L368.791 183.767C372.721 186.56 373.801 192.275 371.181 196.465L354.801 222.702C352.181 226.892 346.821 228.033 342.891 225.25Z" fill="#70CACD"/>
<path d="M287.89 320.114L269.15 306.819C266.58 304.996 265.88 301.265 267.59 298.525L287.27 266.999C288.98 264.259 292.48 263.513 295.05 265.336L313.79 278.631C316.36 280.454 317.06 284.185 315.35 286.925L295.67 318.45C293.96 321.19 290.46 321.937 287.89 320.114Z" fill="#F05757"/>
<path d="M330.73 372.876H303.67V425.265H330.73V372.876Z" fill="#FFFAEF"/>
<path d="M330.73 377.588H303.67V396.928H330.73V377.588Z" fill="#272443"/>
<path d="M345.021 408.474H289.381C280.231 408.474 272.811 416.385 272.811 426.14H361.591C361.591 416.385 354.171 408.474 345.021 408.474Z" fill="#272443"/>
<path d="M313.651 386.981C289.921 386.981 268.591 372.908 257.981 350.264C256.011 346.052 257.611 340.924 261.561 338.824C265.511 336.713 270.321 338.43 272.291 342.641C280.171 359.464 296.011 369.923 313.641 369.923C339.111 369.923 359.831 347.833 359.831 320.679C359.831 293.524 339.111 271.434 313.641 271.434C309.221 271.434 305.641 267.618 305.641 262.905C305.641 258.193 309.221 254.376 313.641 254.376C347.931 254.376 375.831 284.121 375.831 320.679C375.841 357.236 347.941 386.981 313.651 386.981Z" fill="#FFFAEF"/>
<path d="M311.421 336.745H225.771V350.775H311.421V336.745Z" fill="#272443"/>
<path d="M298.501 313.056L270.211 292.981C267.861 291.307 267.211 287.895 268.781 285.379L330.361 186.742C331.931 184.236 335.131 183.543 337.491 185.217L365.781 205.292C368.131 206.966 368.781 210.378 367.211 212.894L305.631 311.531C304.061 314.037 300.851 314.719 298.501 313.056Z" fill="#272443"/>
<path d="M329.65 279.164C337.648 279.164 344.13 272.252 344.13 263.726C344.13 255.2 337.648 248.289 329.65 248.289C321.653 248.289 315.17 255.2 315.17 263.726C315.17 272.252 321.653 279.164 329.65 279.164Z" fill="#70CACD"/>
<path d="M329.651 270.88C333.649 270.88 336.891 267.424 336.891 263.161C336.891 258.898 333.649 255.443 329.651 255.443C325.652 255.443 322.411 258.898 322.411 263.161C322.411 267.424 325.652 270.88 329.651 270.88Z" fill="#272443"/>
<path d="M166.12 107.081C170.698 107.081 174.41 103.124 174.41 98.2428C174.41 93.3616 170.698 89.4047 166.12 89.4047C161.542 89.4047 157.83 93.3616 157.83 98.2428C157.83 103.124 161.542 107.081 166.12 107.081Z" fill="#7A76FF"/>
<path d="M177.541 86.6221C183.306 86.6221 187.981 81.6389 187.981 75.4918C187.981 69.3447 183.306 64.3615 177.541 64.3615C171.775 64.3615 167.101 69.3447 167.101 75.4918C167.101 81.6389 171.775 86.6221 177.541 86.6221Z" fill="#7A76FF"/>
<path d="M403.98 261.445C409.746 261.445 414.42 256.462 414.42 250.315C414.42 244.168 409.746 239.184 403.98 239.184C398.214 239.184 393.54 244.168 393.54 250.315C393.54 256.462 398.214 261.445 403.98 261.445Z" fill="#7A76FF"/>
<path d="M335.12 305.465C339.908 305.465 343.79 301.327 343.79 296.222C343.79 291.117 339.908 286.979 335.12 286.979C330.332 286.979 326.45 291.117 326.45 296.222C326.45 301.327 330.332 305.465 335.12 305.465Z" fill="#F05757"/>
<path d="M365.41 268.513C370.199 268.513 374.08 264.375 374.08 259.27C374.08 254.165 370.199 250.027 365.41 250.027C360.622 250.027 356.74 254.165 356.74 259.27C356.74 264.375 360.622 268.513 365.41 268.513Z" fill="#FFD67E"/>
<path d="M115.14 62.0906C128.219 62.0906 138.82 50.7877 138.82 36.8448C138.82 22.902 128.219 11.599 115.14 11.599C102.062 11.599 91.4604 22.902 91.4604 36.8448C91.4604 50.7877 102.062 62.0906 115.14 62.0906Z" fill="#FFE6B7"/>
<path d="M121.291 73.8073L115.141 36.8555L91.8306 41.2692C91.8306 41.2692 93.7306 53.487 103.321 59.6385C110.501 64.2442 112.381 75.5024 112.381 75.5024L121.291 73.8073Z" fill="#FFE6B7"/>
<path d="M121.14 73.8286L114.99 36.8768L138.3 32.4631C138.3 32.4631 140.46 44.6275 133.44 53.9241C128.18 60.8859 130.06 72.1335 130.06 72.1335L121.14 73.8286Z" fill="#FFE6B7"/>
<path d="M114.561 75.6197C114.291 75.673 114.031 75.4811 113.981 75.1933L109.611 48.9453C109.571 48.6895 109.701 48.4336 109.931 48.3483C110.161 48.263 110.411 48.359 110.531 48.5828C112.021 51.3867 113.801 53.8069 114.351 53.7855C114.341 53.7749 114.471 53.6363 114.571 53.0499C114.471 52.89 114.381 52.7087 114.301 52.5168C113.651 51.0349 113.301 48.1138 114.131 47.57C114.361 47.4208 114.631 47.4421 114.851 47.6127C115.481 48.1351 115.781 50.9283 115.611 52.7514C115.961 53.1992 116.351 53.3164 116.831 53.1459C117.221 53.0073 117.511 52.7087 117.691 52.2823C117.011 51.6 116.561 50.6511 116.341 49.7982C116.081 48.7961 116.051 47.5487 116.731 47.069C117.001 46.8771 117.321 46.8771 117.611 47.069C118.431 47.602 119.071 49.7982 118.891 51.5147C118.881 51.6426 118.861 51.7599 118.841 51.8772C119.101 52.0264 119.381 52.1224 119.691 52.1437C119.991 52.165 120.231 52.0264 120.411 51.7599C119.651 50.4805 118.981 48.7214 119.041 47.634C119.081 46.8451 119.481 46.5466 119.721 46.4399C120.121 46.2587 120.551 46.376 120.891 46.7491C121.671 47.6127 122.091 50.0434 121.561 51.6639C121.741 51.9305 121.911 52.133 122.031 52.2396C122.381 51.5147 122.751 48.6681 122.901 46.2161C122.921 45.9495 123.121 45.7363 123.371 45.715C123.621 45.7043 123.851 45.8856 123.891 46.1521L127.981 70.7262C128.031 71.0141 127.851 71.2913 127.581 71.3446C127.311 71.3979 127.051 71.206 127.001 70.9181L123.531 50.0754C123.311 51.568 122.991 52.8687 122.531 53.2311C122.411 53.3271 122.101 53.5083 121.661 53.2525C121.461 53.1352 121.241 52.922 121.011 52.6341C120.651 53.0286 120.181 53.2205 119.631 53.1992C119.221 53.1778 118.841 53.0606 118.501 52.89C118.201 53.4977 117.731 53.9348 117.141 54.148C116.491 54.3826 115.881 54.3079 115.361 53.9348C115.101 54.6278 114.711 54.809 114.411 54.8303C113.441 54.905 112.101 53.1778 111.031 51.4827L114.941 74.9694C115.011 75.2892 114.831 75.5664 114.561 75.6197ZM117.221 48.1244C117.151 48.3909 117.131 48.9773 117.381 49.7769C117.501 50.182 117.691 50.5872 117.931 50.9603C117.941 49.7236 117.521 48.5295 117.221 48.1244ZM120.101 47.4421C120.091 47.4634 120.011 47.6553 120.081 48.1564C120.181 48.8281 120.461 49.617 120.801 50.3206C120.871 48.892 120.381 47.538 120.101 47.4421Z" fill="#FFFAEF"/>
<path d="M133.01 34.8085C132.96 34.8192 132.9 34.8298 132.85 34.8298C131.76 34.9258 130.76 33.913 130.63 32.5803C129.56 21.6419 122.29 20.7784 121.98 20.7464C120.88 20.6398 120.02 19.467 120.06 18.1237C120.1 16.7911 121.02 15.7889 122.13 15.9062C125.93 16.29 133.43 20.2027 134.6 32.2285C134.72 33.5185 134.02 34.6273 133.01 34.8085Z" fill="#FFFAEF"/>
<path d="M130.014 69.1463L111.681 72.6163L114.391 88.8868L132.724 85.4168L130.014 69.1463Z" fill="#272443"/>
<path d="M128.75 78.3252L115.429 80.8466L117.345 92.3514L130.666 89.83L128.75 78.3252Z" fill="#272443"/>
<path d="M116.541 19.1472C117.75 19.1472 118.731 18.1018 118.731 16.8124C118.731 15.5229 117.75 14.4775 116.541 14.4775C115.331 14.4775 114.351 15.5229 114.351 16.8124C114.351 18.1018 115.331 19.1472 116.541 19.1472Z" fill="#FFFAEF"/>
<path d="M68.9805 296.35C68.9805 296.35 77.6004 297.65 83.3004 305.518L78.0204 310.913C78.0204 310.913 69.2805 307.64 69.2805 305.22C69.2905 304.282 68.9805 296.35 68.9805 296.35Z" fill="#7A76FF"/>
<path d="M71.3204 289.313C71.5204 288.94 71.8604 287.576 73.9305 288.386C76.0005 289.207 76.1405 285.891 76.5605 286.222C76.9805 286.541 77.0905 288.237 76.2005 288.972C75.3105 289.708 72.0805 289.814 72.4105 291.627C72.7405 293.439 88.5505 305.081 87.2205 308.29C85.8905 311.51 82.7305 312.043 80.0605 309.836C77.3605 307.629 68.6404 294.335 71.3204 289.313Z" fill="#E57373"/>
<path d="M62.5906 283.087C62.5906 283.087 62.4906 280.038 61.1606 280.337C59.8306 280.624 58.8706 283.62 59.5806 284.718C60.3006 285.816 62.6106 285.635 62.5906 283.087Z" fill="#E57373"/>
<path d="M99.7305 365.637L100.3 370.68C101.07 370.68 109.33 370.125 109.41 369.582C109.49 369.038 103.05 368.164 103.05 368.164C103.05 368.164 103.08 366.021 102.96 365.733C102.86 365.467 99.7305 365.637 99.7305 365.637Z" fill="#272443"/>
<path d="M87.2607 374.219L86.0107 379.124C86.7307 379.433 94.5706 382.226 94.8406 381.757C95.1106 381.277 89.4407 377.897 89.4407 377.897C89.4407 377.897 90.2207 375.925 90.2207 375.616C90.2207 375.317 87.2607 374.219 87.2607 374.219Z" fill="#272443"/>
<path d="M63.5803 295.817C63.5803 295.817 57.4903 295.412 54.4403 297.842C51.3903 300.273 52.3503 347.161 52.3503 347.161L71.9603 342.289C71.9603 342.289 73.2903 299.058 70.8203 297.235C68.3303 295.412 63.5803 295.817 63.5803 295.817Z" fill="#7A76FF"/>
<path d="M52.3506 340.86C52.3506 340.86 84.5206 313.056 95.3706 325.231C106.221 337.406 103.361 367.439 103.361 367.439H98.7906C98.7906 367.439 97.0806 333.344 89.6506 331.521C82.2306 329.698 74.4806 339.506 74.4806 339.506C74.4806 339.506 85.8506 337.001 92.1306 343.291C96.5206 347.684 90.8006 377.183 90.8006 377.183H86.2306C86.2306 377.183 89.8606 346.959 83.4806 347.15C77.1006 347.353 52.3506 347.15 52.3506 347.15V340.86Z" fill="#F05757"/>
<path d="M35.4004 342.012L97.2804 293.631L115.35 288.237L103.17 303.45L40.3504 352.151L35.4004 342.012Z" fill="#F9B57C"/>
<path d="M97.2804 293.631L94.8504 298.78L99.7304 299.154L98.9704 303.141L103.17 303.45L40.4204 353.035L35.4004 342.012L97.2804 293.631Z" fill="#FFD67E"/>
<path d="M105.38 291.211L108.94 296.243L115.35 288.237L105.38 291.211Z" fill="#272443"/>
<path d="M47.5502 314.655C47.5502 314.655 46.1802 331.319 49.8002 331.457C53.4202 331.596 65.8402 324.378 67.0502 324.133C69.0702 323.728 71.1402 325.327 71.3502 325.146C71.5602 324.964 71.1002 322.15 66.7602 321.468C63.1902 320.903 53.8102 324.964 53.1002 323.333C52.3902 321.702 55.3302 297.842 55.3302 297.842C55.3302 297.842 47.3002 300.678 47.5502 314.655Z" fill="#E57373"/>
<path d="M45.4004 312.246C45.4004 312.246 53.0504 315.924 54.1205 314.655C55.1905 313.386 58.7505 296.115 58.7505 296.115C58.7505 296.115 48.6104 296.243 45.4004 312.246Z" fill="#7A76FF"/>
<path d="M70.8104 276.061C70.8104 276.061 74.1804 287.981 69.4304 289.399C64.6803 290.817 65.5403 285.443 65.7304 286.456C65.9204 287.469 67.1304 295.827 67.1304 295.827C67.1304 295.827 64.7203 299.1 60.1803 296.264C59.4603 295.817 62.1203 282.767 62.6703 276.136C62.9003 273.258 69.1004 272.65 70.8104 276.061Z" fill="#E57373"/>
<path d="M46.9002 287.256C49.6502 282.554 54.4602 284.761 54.5602 280.305C54.6602 275.848 59.4002 269.11 67.9002 271.712C71.9702 272.959 71.8102 275.784 68.0302 275.688C64.2502 275.592 64.1202 278.727 63.8102 280.315C63.5002 281.904 62.5202 283.684 62.2602 282.842C61.2702 279.633 60.0502 281.275 60.0502 281.275C60.0502 281.275 58.6002 283.801 60.0502 284.526C61.5002 285.251 62.0702 284.377 62.2602 285.433C62.4402 286.488 63.4902 292.853 59.3502 293.034C55.2102 293.215 56.6202 295.891 52.0802 296.894C47.5302 297.906 44.4002 291.542 46.9002 287.256Z" fill="#272443"/>
<path d="M321.41 158.02L321.89 163.074C322.66 163.084 330.92 162.701 331.02 162.157C331.12 161.613 324.68 160.611 324.68 160.611C324.68 160.611 324.75 158.479 324.64 158.18C324.54 157.914 321.41 158.02 321.41 158.02Z" fill="#272443"/>
<path d="M304.58 200.004L303.62 204.983C304.35 205.25 312.34 207.52 312.59 207.03C312.84 206.54 306.98 203.522 306.98 203.522C306.98 203.522 307.65 201.508 307.62 201.188C307.6 200.9 304.58 200.004 304.58 200.004Z" fill="#272443"/>
<path d="M289.84 137.497C289.84 137.497 302.13 111.996 316.26 113.776C330.39 115.557 326.21 158.447 326.21 158.447H320.67C320.67 158.447 319.47 126.975 314.64 127.049C309.81 127.124 293.67 151.197 293.67 151.197C293.67 151.197 314.7 149.289 317.52 164.566C320.95 183.138 308.95 202.307 308.95 202.307L302.17 202.03C302.17 202.03 315.1 169.609 307.81 164.865C296.59 157.562 274.98 170.686 266.41 153.468L289.84 137.497Z" fill="#007F86"/>
<path d="M274.09 103.467C274.09 103.467 289.41 109.576 297.24 106.079C305.07 102.582 313.9 85.3001 318.9 85.0975C323.9 84.895 324.09 82.9973 324.09 82.9973C324.09 82.9973 323.7 87.7629 320.45 87.9441C317.2 88.1253 313.33 107.955 300.81 113.254C288.3 118.552 275.26 114.288 275.26 114.288C275.26 114.288 272.35 105.674 274.09 103.467Z" fill="#E57373"/>
<path d="M280.89 102.763C280.89 102.763 254.4 92.4005 266.43 153.468C266.43 153.468 293.95 144.097 289.84 137.497C286.98 132.902 285.89 135.984 285.32 128.563C284.75 121.143 300.42 120.237 280.89 102.763Z" fill="#7A76FF"/>
<path d="M269.44 79.1166C269.57 78.7115 274.14 71.3232 281.48 76.1634C284.57 78.2104 284.62 82.0911 288.42 83.0932C292.23 84.0954 297.76 80.1934 299.73 86.9099C301.7 93.6265 299.45 95.4603 302.86 96.2065C306.27 96.9635 308.86 96.5051 308.03 101.676C306.84 109.107 296.16 109.32 294.85 105.098C291.54 94.4155 285.9 107.06 283.04 97.5605C281.6 92.763 262.57 100.141 269.44 79.1166Z" fill="#272443"/>
<path d="M278.47 89.5752C278.47 89.5752 279.9 86.8246 281.23 87.1125C282.56 87.4003 282.19 90.1083 281.48 91.2064C280.76 92.3045 278.45 92.1126 278.47 89.5752Z" fill="#E57373"/>
<path d="M268.83 85.1402C268.83 85.1402 266.87 94.4687 271.63 95.8867C276.39 97.3046 275.52 91.9314 275.33 92.9442C275.14 93.957 273.93 102.315 273.93 102.315C273.93 102.315 276.34 105.588 280.88 102.753C281.6 102.305 278.94 89.2554 278.39 82.6241C278.16 79.7456 270.47 79.1912 268.83 85.1402Z" fill="#E57373"/>
<path d="M276.92 113.691C276.92 113.691 291.49 121.623 299.64 119.107C307.79 116.591 318.42 100.492 323.4 100.908C328.38 101.324 328.78 99.4476 328.78 99.4476C328.78 99.4476 327.88 104.128 324.63 103.925C321.38 103.723 315.41 122.934 302.4 126.676C289.4 130.418 276.9 124.587 276.9 124.587C276.9 124.587 274.95 115.674 276.92 113.691Z" fill="#E57373"/>
<path d="M280.89 102.763C280.89 102.763 287.59 106.964 288.62 107.028C289.65 107.102 288.62 114.459 288.62 114.459C288.62 114.459 279.28 109.522 280.89 102.763Z" fill="#7A76FF"/>
<path d="M274.92 110.908C274.92 110.908 283.79 114.576 284.36 115.908C284.94 117.241 283.37 128.489 281 127.785C278.63 127.081 270.63 125.653 270.47 120.152C270.31 114.64 271.96 109.618 274.92 110.908Z" fill="#7A76FF"/>
<path d="M324.09 102.102C336.478 102.102 346.52 91.3959 346.52 78.1891C346.52 64.9822 336.478 54.2759 324.09 54.2759C311.702 54.2759 301.66 64.9822 301.66 78.1891C301.66 91.3959 311.702 102.102 324.09 102.102Z" fill="#F05757"/>
<path d="M317.19 78.1784C317.2 78.5302 317.21 78.8927 317.21 79.2445H323.59V78.1784H317.19Z" fill="#FFFAEF"/>
<path d="M324.59 78.1784V79.2445H330.97C330.97 78.8927 330.98 78.5302 330.99 78.1784H324.59Z" fill="#FFFAEF"/>
<path d="M346.49 79.2445C346.5 78.8927 346.51 78.5409 346.51 78.1891V78.1784H331.98C331.97 78.5302 331.96 78.8927 331.96 79.2445H346.49Z" fill="#FFFAEF"/>
<path d="M301.66 78.1784V78.1891C301.66 78.5409 301.67 78.8927 301.68 79.2445H316.21C316.21 78.8927 316.2 78.5302 316.19 78.1784H301.66Z" fill="#FFFAEF"/>
<path d="M324.59 54.2866C324.42 54.2866 324.26 54.2759 324.09 54.2759C323.92 54.2759 323.76 54.2866 323.59 54.2866V78.1677V79.2339V102.081C323.76 102.081 323.92 102.092 324.09 102.092C324.26 102.092 324.42 102.081 324.59 102.081V79.2339V78.1677V54.2866Z" fill="#FFFAEF"/>
<path d="M331.96 79.5111C331.96 79.4151 331.96 79.3298 331.96 79.2339C331.96 78.882 331.97 78.5196 331.98 78.1677C332.24 70.6409 334.69 63.9883 338.35 59.7345C338.1 59.5106 337.84 59.2974 337.58 59.0841C333.77 63.5405 331.24 70.4064 330.98 78.1677C330.97 78.5196 330.96 78.882 330.96 79.2339C330.96 79.3298 330.96 79.4151 330.96 79.5111C330.96 86.8886 333.01 93.5412 336.29 98.2428C336.56 98.0509 336.83 97.859 337.1 97.6565C333.94 93.1361 331.96 86.6861 331.96 79.5111Z" fill="#FFFAEF"/>
<path d="M310.59 59.0948C310.33 59.308 310.07 59.5213 309.82 59.7452C313.49 64.0096 315.93 70.6516 316.19 78.1784C316.2 78.5302 316.21 78.8927 316.21 79.2445C316.21 79.3405 316.21 79.4258 316.21 79.5217C316.21 86.6861 314.23 93.1468 311.07 97.6671C311.34 97.8697 311.61 98.0616 311.88 98.2535C315.16 93.5519 317.21 86.8993 317.21 79.5217C317.21 79.4258 317.21 79.3405 317.21 79.2445C317.21 78.8927 317.2 78.5302 317.19 78.1784C316.93 70.417 314.4 63.5512 310.59 59.0948Z" fill="#FFFAEF"/>
<path d="M109.241 1.183C108.501 1.3216 107.991 2.08921 108.131 2.87814L108.741 6.55626C108.871 7.34519 109.591 7.88891 110.331 7.73966C111.071 7.5904 111.581 6.83345 111.441 6.04452L110.831 2.3664C110.711 1.57747 109.991 1.04441 109.241 1.183Z" fill="#FFE6B7"/>
<path d="M119.591 0.479368C118.841 0.362095 118.141 0.916479 118.031 1.71607L117.521 5.40486C117.411 6.20445 117.931 6.95074 118.681 7.06801C119.431 7.18528 120.131 6.6309 120.241 5.83131L120.751 2.14252C120.861 1.35359 120.341 0.607303 119.591 0.479368Z" fill="#FFE6B7"/>
<path d="M129.92 2.54765C129.28 2.11054 128.43 2.30244 128.02 2.98476L126.12 6.11916C125.71 6.80148 125.89 7.70768 126.53 8.14479C127.17 8.5819 128.02 8.39 128.43 7.70768L130.33 4.57328C130.74 3.89096 130.55 2.98476 129.92 2.54765Z" fill="#FFE6B7"/>
<path d="M136.96 8.48597C136.4 7.95291 135.52 8.00621 135.02 8.60324L132.69 11.3858C132.19 11.9828 132.24 12.921 132.8 13.4541C133.36 13.9872 134.24 13.9339 134.74 13.3368L137.07 10.5542C137.57 9.94655 137.53 9.01903 136.96 8.48597Z" fill="#FFE6B7"/>
<path d="M143.68 17.1962C143.38 16.4605 142.57 16.1087 141.87 16.4286L138.65 17.8998C137.96 18.2197 137.63 19.0832 137.93 19.8295C138.23 20.5651 139.04 20.917 139.74 20.5971L142.96 19.1259C143.66 18.7954 143.98 17.9318 143.68 17.1962Z" fill="#FFE6B7"/>
<path d="M148.25 25.3413C148.15 24.5418 147.46 23.966 146.71 24.0727L143.24 24.5418C142.49 24.6484 141.95 25.384 142.05 26.1836C142.15 26.9832 142.84 27.5589 143.59 27.4523L147.06 26.9832C147.81 26.8766 148.34 26.1409 148.25 25.3413Z" fill="#FFE6B7"/>
<path d="M149.8 34.8832C149.79 34.0729 149.16 33.4333 148.4 33.4439L144.9 33.5185C144.14 33.5292 143.54 34.2009 143.55 35.0111C143.56 35.8214 144.19 36.461 144.95 36.4504L148.45 36.3757C149.21 36.3651 149.82 35.6934 149.8 34.8832Z" fill="#FFE6B7"/>
<path d="M149.23 43.9878C149.41 43.1989 148.95 42.41 148.21 42.2181L144.81 41.3439C144.07 41.152 143.33 41.6424 143.15 42.4313C142.97 43.2202 143.43 44.0092 144.17 44.2011L147.57 45.0753C148.31 45.2565 149.05 44.7768 149.23 43.9878Z" fill="#FFE6B7"/>
<path d="M147.16 53.1991C147.53 52.4955 147.29 51.5999 146.63 51.2055L143.57 49.3931C142.91 48.9986 142.07 49.2545 141.7 49.9581C141.33 50.6618 141.57 51.5573 142.23 51.9518L145.29 53.7642C145.95 54.1586 146.8 53.9028 147.16 53.1991Z" fill="#FFE6B7"/>
<path d="M141.48 59.4999C142.1 59.0415 142.26 58.1246 141.83 57.4636L139.85 54.3932C139.42 53.7322 138.56 53.5617 137.94 54.0201C137.32 54.4785 137.16 55.3954 137.59 56.0564L139.57 59.1268C140 59.7878 140.86 59.9584 141.48 59.4999Z" fill="#FFE6B7"/>
<path d="M100.481 4.10421C101.141 3.7204 101.981 3.98693 102.341 4.69057L104.011 7.97424C104.371 8.67788 104.121 9.57342 103.461 9.95723C102.801 10.341 101.961 10.0745 101.601 9.37086L99.9305 6.0872C99.5705 5.38356 99.8205 4.48801 100.481 4.10421Z" fill="#FFE6B7"/>
<path d="M91.4505 9.82928C91.9105 9.1896 92.7705 9.06167 93.3804 9.54142L96.1704 11.7909C96.7704 12.2814 96.8904 13.1982 96.4404 13.8486C95.9804 14.4882 95.1204 14.6162 94.5104 14.1364L91.7205 11.8869C91.1205 11.3965 91.0005 10.469 91.4505 9.82928Z" fill="#FFE6B7"/>
<path d="M86.7502 17.9851C87.1102 17.2708 87.9402 17.0043 88.6102 17.3774L91.7002 19.1365C92.3702 19.5203 92.6202 20.4052 92.2702 21.1195C91.9102 21.8338 91.0802 22.1003 90.4102 21.7272L87.3202 19.9681C86.6502 19.5843 86.4002 18.6994 86.7502 17.9851Z" fill="#FFE6B7"/>
<path d="M83.2505 28.625C83.2905 27.8148 83.9405 27.1964 84.7005 27.2391L88.1905 27.4416C88.9505 27.4843 89.5305 28.1773 89.4905 28.9875C89.4505 29.7978 88.8005 30.4161 88.0405 30.3735L84.5505 30.1709C83.8005 30.1283 83.2105 29.4353 83.2505 28.625Z" fill="#FFE6B7"/>
<path d="M81.6002 37.9536C81.4302 37.1647 81.9002 36.3757 82.6302 36.1945L86.0402 35.3629C86.7802 35.1817 87.5202 35.6828 87.6902 36.461C87.8602 37.2393 87.3902 38.0389 86.6602 38.2201L83.2502 39.0517C82.5102 39.233 81.7702 38.7425 81.6002 37.9536Z" fill="#FFE6B7"/>
<path d="M83.2204 47.4847C82.9704 46.7278 83.3604 45.8856 84.0704 45.619L87.3804 44.4036C88.0904 44.1371 88.8804 44.5529 89.1304 45.3099C89.3804 46.0668 88.9904 46.909 88.2804 47.1756L84.9704 48.3909C84.2504 48.6575 83.4704 48.2524 83.2204 47.4847Z" fill="#FFE6B7"/>
<path d="M86.7002 55.8218C86.2802 55.1501 86.4502 54.2333 87.0802 53.7855L89.9902 51.7172C90.6202 51.2695 91.4801 51.4507 91.9001 52.1224C92.3201 52.794 92.1501 53.7109 91.5202 54.1587L88.6102 56.2269C87.9702 56.6747 87.1102 56.4935 86.7002 55.8218Z" fill="#FFE6B7"/>
<path d="M91.6104 63.7111C91.0404 63.1887 90.9704 62.2505 91.4704 61.6428L93.7503 58.8176C94.2403 58.2099 95.1203 58.1353 95.6903 58.6684C96.2603 59.1908 96.3303 60.1289 95.8303 60.7366L93.5503 63.5619C93.0603 64.1696 92.1803 64.2335 91.6104 63.7111Z" fill="#FFE6B7"/>
<path d="M98.9803 67.5492C98.2503 67.3466 97.8003 66.547 97.9903 65.7687L98.8603 62.1546C99.0503 61.3763 99.8003 60.8966 100.53 61.0991C101.26 61.3017 101.71 62.1013 101.52 62.8795L100.65 66.4937C100.47 67.272 99.7103 67.7411 98.9803 67.5492Z" fill="#FFE6B7"/>
<path d="M243.87 331.873L243.83 336.948C243.06 337.044 234.8 337.47 234.66 336.937C234.52 336.404 240.83 334.773 240.83 334.773C240.83 334.773 240.58 332.651 240.66 332.353C240.74 332.076 243.87 331.873 243.87 331.873Z" fill="#272443"/>
<path d="M255.64 331.884L255.45 336.958C254.68 337.022 246.41 337.182 246.28 336.639C246.15 336.095 252.51 334.677 252.51 334.677C252.51 334.677 252.32 332.545 252.41 332.246C252.51 331.98 255.64 331.884 255.64 331.884Z" fill="#272443"/>
<path d="M261.25 269.281C261.25 269.281 267.15 224.195 261.26 217.787C252.05 207.766 235.97 215.271 235.32 216.423C232.68 221.092 232.44 268.13 232.44 268.13L261.25 269.281Z" fill="#7DD0E6"/>
<path d="M232.441 268.13C232.441 268.13 218.671 286.989 220.961 296.488C223.241 305.988 238.961 333.163 238.961 333.163H245.631C245.631 333.163 231.371 299.548 232.451 296.073C233.531 292.597 246.861 278.588 246.861 278.588C246.861 278.588 247.631 315.892 251.721 333.163H256.371C256.371 333.163 261.311 291.456 261.271 267.351L232.441 268.13Z" fill="#272443"/>
<path d="M255.63 213.896L254.75 296.137H262.32C262.32 296.137 264.92 222.723 263.88 218.704C262.84 214.685 255.63 213.896 255.63 213.896Z" fill="#FBE4D3"/>
<path d="M221.621 286.126L226.071 289.74C226.071 289.74 239.321 269.697 238.951 267.351C238.581 265.006 240.751 213.896 240.751 213.896C240.751 213.896 235.951 214.12 234.981 218.011C232.101 229.621 232.441 265.55 232.441 265.55C232.441 265.55 225.511 277.224 221.621 286.126Z" fill="#FBE4D3"/>
<path d="M249.171 199.546C249.171 199.546 249.271 196.497 250.601 196.795C251.931 197.083 252.891 200.079 252.181 201.177C251.461 202.275 249.151 202.094 249.171 199.546Z" fill="#E57373"/>
<path d="M240.321 196.028C240.321 196.028 237.571 204.45 242.331 205.868C247.091 207.286 246.221 201.913 246.031 202.925C245.841 203.938 244.941 213.661 244.941 213.661C244.941 213.661 247.031 215.58 251.581 212.744C251.581 212.744 249.641 199.247 249.091 192.616C248.861 189.716 242.041 192.616 240.321 196.028Z" fill="#E57373"/>
<path d="M248.64 190.015C248.64 190.015 247.57 186.07 245.29 186.998C243.01 187.925 243.32 189.258 241.67 188.511C240.02 187.765 238.33 190.526 239.2 192.286C240.35 194.599 240.33 195.303 243.48 194.546C246.63 193.789 248.28 192.616 248.99 193.959C249.7 195.303 248.44 198.736 249.38 199.162C250.32 199.588 250.25 196.902 250.95 197.904C251.66 198.906 252.76 201.486 250.87 201.156C248.98 200.836 250.38 203.522 251.1 203.437C251.82 203.352 255.1 200.484 254.73 196.646C254.49 194.215 252.1 195.473 252.76 193.714C253.42 191.944 251.91 188.17 248.64 190.015Z" fill="#272443"/>
<path d="M264.12 269.281C264.12 269.281 260.01 266.168 265.39 260.038C269.89 254.91 280.93 242.265 277.12 237.649C273.31 233.033 264.12 229.44 264.12 229.44L262.23 216.337C262.23 216.337 282.52 224.728 286.64 236.722C290.54 248.054 268.25 261.584 266.37 263.289C263.86 265.56 264.12 269.281 264.12 269.281Z" fill="#E57373"/>
<path d="M235.33 216.422C235.33 216.422 213.9 223.651 212.9 239.643C211.9 255.634 232.52 261.605 231.19 264.302C230.11 266.509 226.65 267.223 227.65 267.074C228.65 266.925 234.13 269.174 232.52 261.605C230.9 254.035 215.49 248.438 222.4 238.577C226.09 233.31 233.55 230.495 233.55 230.495C233.55 230.495 234.34 219.909 235.33 216.422Z" fill="#E57373"/>
<path d="M262.98 230.485L272.9 234.312C272.9 234.312 278.96 226.497 278.56 226.167C278.17 225.836 268.28 216.668 257.71 214.301C257.71 214.29 260.48 228.225 262.98 230.485Z" fill="#FBE4D3"/>
<path d="M236.64 230.485C236.64 230.485 229.31 232.798 225.97 236.178C225.97 236.178 218.23 227.51 218.42 227.297C218.61 227.084 225.51 218.683 238.77 214.301L236.64 230.485Z" fill="#FBE4D3"/>
<path d="M239.191 202.819C239.191 202.819 240.681 201.508 242.431 202.819C244.181 204.13 249.031 202.371 248.831 198.661L250.261 197.787C250.261 197.787 249.051 207.19 244.181 207.851C239.311 208.512 238.441 203.245 239.191 202.819Z" fill="#272443"/>
</svg>
